<svg xmlns="http://www.w3.org/2000/svg" viewBox="0 0 32 32">
  <rect width="32" height="32" rx="6" fill="#007AFF"/>
  <!-- Outer helmet -->
  <path d="M16,3.5 C11,3.5 6.5,7.2 5.8,12.4 L5.2,19.5 C5.2,23.3 7.7,27 10,28.2 L16,29.5 L22,28.2 C24.3,27 26.8,23.3 26.8,19.5 L26.2,12.4 C25.5,7.2 21,3.5 16,3.5 Z" fill="white"/>
  <!-- Face plate -->
  <path d="M16,6 C12,6 9,8.6 8.4,12.8 L7.9,19.2 C7.9,22.4 9.8,25.4 11.9,26.5 L16,27.6 L20.1,26.5 C22.2,25.4 24.1,22.4 24.1,19.2 L23.6,12.8 C23,8.6 20,6 16,6 Z" fill="#111"/>
  <!-- Left eye -->
  <polygon points="7.8,16.2 13.5,14.8 13.5,17.2 7.8,18.6" fill="white"/>
  <!-- Right eye -->
  <polygon points="18.5,14.8 24.2,16.2 24.2,18.6 18.5,17.2" fill="white"/>
  <!-- Chin -->
  <path d="M13,21.5 L19,21.5 L18.2,26 L13.8,26 Z" fill="white"/>
  <!-- Forehead seam -->
  <rect x="15.1" y="6" width="1.8" height="5.6" fill="white"/>
</svg>
